<svg xmlns="http://www.w3.org/2000/svg" viewBox="0 0 772.1 702"><defs><style>.cls-1{fill:#fff;}</style></defs><g id="Layer_2" data-name="Layer 2"><g id="Layer_1-2" data-name="Layer 1"><path class="cls-1" d="M372,244.56V283H249V244.56c0-26.32,27.59-47.74,61.5-47.74S372,218.24,372,244.56Z"/><path class="cls-1" d="M310.5,196.82c-33.91,0-61.5,21.42-61.5,47.74V283H372V244.56C372,218.24,344.41,196.82,310.5,196.82Z"/><path class="cls-1" d="M323.61,395.71l10.31,30.79H287.53l10.31-30.87,4-11.93a23.19,23.19,0,1,1,17.76,0Z"/><path class="cls-1" d="M541.25,549.7a7.16,7.16,0,0,1,0-10.12l18.17-18.17a7.16,7.16,0,0,1,10.12,0l5.66,5.66C603.35,495.29,622,461.28,622,427V85.86L311,0,0,85.86V427C0,567.18,311,702,311,702s144-62.43,236-146.52ZM438,488.81A16.2,16.2,0,0,1,421.81,505H200.19A16.2,16.2,0,0,1,184,488.81V300.19A16.2,16.2,0,0,1,200.19,284H221V244.56c0-20.8,9.6-40.15,27-54.48,16.7-13.71,38.88-21.26,62.47-21.26s45.77,7.55,62.47,21.26c17.43,14.33,27,33.68,27,54.48V284h21.81A16.2,16.2,0,0,1,438,300.19Z"/><path class="cls-1" d="M747.25,451.36a150.92,150.92,0,0,0-42.43-42.43,150.1,150.1,0,0,0-165.44,0A150.92,150.92,0,0,0,497,451.36a150.1,150.1,0,0,0,0,165.44h0a150.47,150.47,0,0,0,13.88,17.88q3.8,4.2,7.9,8.1a150.57,150.57,0,0,0,20.65,16.45h0a150.1,150.1,0,0,0,165.44,0h0a151.09,151.09,0,0,0,20.64-16.45q4.11-3.9,7.9-8.1a151.6,151.6,0,0,0,13.89-17.88h0a150.1,150.1,0,0,0,0-165.44Zm-29.87,41.2L606.06,603.89a7.3,7.3,0,0,1-10.23,0l-54.58-54.58a7.16,7.16,0,0,1,0-10.12L559.42,521a7.15,7.15,0,0,1,10.12,0l31.4,31.4,88.16-88.15a7.15,7.15,0,0,1,10.12,0l18.16,18.16A7.15,7.15,0,0,1,717.38,492.56Z"/></g></g></svg>